<svg width="50" height="52" viewBox="0 0 50 52" fill="none" xmlns="http://www.w3.org/2000/svg">
<path d="M18.4167 6.20381C18.2667 6.23124 17.9778 6.27512 17.7778 6.30254C17.3833 6.3574 16.9778 6.45065 16.8056 6.52195C16.7445 6.54938 16.5833 6.6152 16.4445 6.67006C15.6167 7.01562 14.9278 7.65739 14.5 8.49664C14.1111 9.24811 14.0945 9.34685 14.0722 11.1899C14.05 12.3747 14.0278 12.8739 13.9833 12.9013C13.9445 12.9232 12.8945 12.9452 11.6445 12.9452C9.39445 12.9452 8.97779 12.9726 8.47223 13.1426C8.34446 13.1865 8.21668 13.2194 8.17779 13.2194C8.05001 13.2194 7.36112 13.5705 6.97223 13.8283C6.75557 13.9764 6.41112 14.2616 6.20001 14.4701C5.85001 14.8211 5.45001 15.3258 5.44445 15.43C5.44445 15.4574 5.40557 15.5122 5.36112 15.5561C5.31668 15.6055 5.27779 15.6878 5.27779 15.7426C5.27779 15.7975 5.25557 15.8578 5.22779 15.8743C5.17779 15.9072 5.10557 16.1156 4.91668 16.7793C4.84445 17.0426 4.83334 18.5182 4.83334 29.4338C4.83334 41.3696 4.8389 41.803 4.9389 42.2198C4.99445 42.4557 5.10001 42.7958 5.16668 42.9768C5.46112 43.7393 6.32779 44.776 7.03334 45.1928L7.35001 45.3848L7.51668 45.1928C7.73334 44.946 8.13334 44.5236 8.75001 43.8819C9.02223 43.5912 9.55001 43.0371 9.91668 42.6477C10.2778 42.2528 11.2667 41.2435 12.1111 40.3987C12.9556 39.554 13.8889 38.5831 14.1889 38.2376C14.7111 37.6397 14.7389 37.6013 14.8167 37.2228C14.8889 36.8992 14.8889 36.7127 14.8389 36.1203C14.8056 35.7253 14.7778 35.0726 14.7778 34.6667C14.7722 34.2608 14.7389 33.4654 14.7 32.9004C14.6278 31.8912 14.6222 31.8747 14.4111 31.4633C14.1945 31.03 13.8167 30.6241 13.1556 30.1249C12.8945 29.9274 12.4611 29.516 12.0556 29.0772C11.7778 28.781 11.05 27.5414 10.9167 27.1464C10.5445 26.0055 10.4889 25.6874 10.4833 24.6561C10.4778 23.9321 10.5 23.6249 10.5778 23.2848C10.8445 22.1165 11.2389 21.2279 11.8556 20.4051C12.1222 20.0431 13.1889 18.9789 13.2778 18.9789C13.3167 18.9789 13.4389 18.9076 13.55 18.8253C13.9056 18.5566 14.6667 18.2329 14.8167 18.2878C14.9 18.3207 14.9056 18.5675 14.8722 21.535C14.8278 25.1772 14.8167 25.073 15.2611 25.5612C15.5278 25.8574 15.6945 25.9561 16.1945 26.1207C16.6889 26.2852 18.4889 26.3291 19.1 26.1865C19.7389 26.0439 20.3222 25.7148 20.45 25.4296C20.4778 25.3637 20.5222 25.276 20.55 25.2321C20.7056 24.9743 20.7278 24.6122 20.7389 21.5021L20.75 18.2933L20.9778 18.2987C21.2722 18.3042 22.0222 18.6608 22.5222 19.0338C23.3278 19.6426 23.9445 20.4051 24.4222 21.3924C24.7111 21.9903 24.7778 22.1604 24.7778 22.2865C24.7833 22.3523 24.8167 22.4675 24.8611 22.5443C24.9056 22.6211 24.9389 22.7582 24.9445 22.8515C24.9445 22.9447 24.9833 23.1312 25.0278 23.2574C25.1333 23.5481 25.15 25.4076 25.05 25.6544C25.0167 25.7367 24.9667 25.9561 24.9445 26.1371C24.9 26.4717 24.8278 26.7295 24.6889 27.0038C24.6445 27.0916 24.6111 27.1903 24.6111 27.2287C24.6111 27.3439 24.0778 28.3422 23.8222 28.6987C23.4833 29.1705 22.8333 29.8397 22.2778 30.2785C21.5056 30.8874 21.0833 31.4468 20.9056 32.0886C20.8556 32.2696 20.8167 32.6481 20.8111 33.0321L20.8056 33.6739L20.5278 33.9646C20.3778 34.1236 20.2389 34.2663 20.2222 34.2827C20.2056 34.2992 19.9556 34.557 19.6667 34.8587C19.3778 35.1604 18.6778 35.8734 18.1111 36.4494C17.5445 37.0198 16.8722 37.7274 16.6111 38.0127C16.35 38.2924 15.9389 38.7422 15.6945 39C15.45 39.2578 14.9889 39.7515 14.6667 40.0971C14.3445 40.4426 13.8945 40.9253 13.6611 41.1667C13.4333 41.408 13.1445 41.7152 13.0222 41.8523C12.9056 41.984 12.5556 42.357 12.25 42.6751C11.9445 42.9878 11.4833 43.4705 11.2167 43.7447C10.9556 44.0135 10.6611 44.3371 10.5611 44.4578C10.4611 44.5785 10.0611 44.9954 9.67779 45.3793C9.11668 45.9388 8.9889 46.0924 9.05557 46.1308C9.10001 46.1582 9.67779 46.1857 10.3389 46.1857H11.5389L13.3945 44.3152C15.5111 42.1814 15.5389 42.1485 16.2945 41.3312C16.6056 40.9966 17.1556 40.4207 17.5278 40.0422C17.9 39.6637 18.4111 39.1317 18.6722 38.8629C18.9278 38.5886 19.5778 37.9085 20.1111 37.3544C20.6445 36.795 21.3333 36.0819 21.6333 35.7637C22.6445 34.716 23.5111 33.8439 23.5556 33.8439C23.5778 33.8439 23.7778 34.0359 24 34.2663C24.2278 34.5021 24.7889 35.0836 25.2445 35.5663C25.7056 36.0435 26.2278 36.5481 26.4111 36.6852C26.5889 36.8169 26.8556 37.0418 27.0056 37.1789C27.25 37.3983 27.2778 37.4477 27.2778 37.6561C27.2778 37.8536 27.2333 37.9414 27.0167 38.2101C26.8667 38.3857 26.7 38.5831 26.6333 38.6435C26.5722 38.7038 26.3722 38.9123 26.1945 39.1097C25.9056 39.4279 24.6111 40.7992 24.3889 41.0241C24.3389 41.0734 24.0667 41.3696 23.7778 41.6878C23.4889 42.0004 23.0111 42.5051 22.7167 42.8123C22.4222 43.1139 22.0222 43.5418 21.8278 43.7612C21.6333 43.9861 21.2167 44.4304 20.9111 44.7485C20.6 45.0722 20.2333 45.4726 20.0889 45.6371C19.95 45.8017 19.7945 45.9717 19.7445 46.0156C19.6945 46.0595 19.6778 46.1089 19.7056 46.1363C19.7389 46.1692 23.8667 46.1802 29.95 46.1747C39.5333 46.1582 40.15 46.1528 40.3167 46.0595C40.4167 46.0101 40.5389 45.9663 40.5945 45.9663C40.7167 45.9663 41.4778 45.5878 41.8611 45.3355C42.1889 45.1215 42.9056 44.403 43.1611 44.03C43.3167 43.8051 43.5722 43.295 43.7222 42.922C43.8333 42.6367 43.9056 42.2692 43.95 41.7426C43.9833 41.3971 43.9945 36.2848 43.9833 29.0443C43.9722 17.4485 43.9667 16.911 43.8667 16.6203C43.6833 16.0827 43.4833 15.611 43.3778 15.4739C43.3222 15.4025 43.2778 15.3203 43.2778 15.2928C43.2778 15.2654 43.1611 15.0899 43.0167 14.9034C42.2445 13.9106 41.1611 13.2633 39.8445 13.0055C39.6611 12.9671 38.6445 12.9452 37.25 12.9452C35.4833 12.9452 34.9445 12.9287 34.9 12.8739C34.8667 12.8355 34.8333 12.1827 34.8222 11.2447C34.8 9.94474 34.7833 9.64854 34.7056 9.46752C34.6556 9.35233 34.6111 9.2152 34.6111 9.16035C34.6111 9.02322 34.3222 8.3979 34.0945 8.05233C33.85 7.67385 33.4111 7.24052 33.0111 6.97723C32.7333 6.79622 32.5833 6.71942 32.0833 6.52744C31.85 6.43419 31.4556 6.35191 31.0389 6.30254C30.8 6.27512 30.5833 6.24221 30.5556 6.22575C30.4667 6.1709 18.7056 6.14896 18.4167 6.20381ZM30.5222 9.71984C30.8 9.79664 30.9778 9.92828 31.15 10.1751C31.2722 10.3561 31.2778 10.3945 31.2778 11.6232V12.8903L31.1556 12.9177C31.0833 12.9342 28.0167 12.9397 24.3333 12.9342L17.6389 12.9177L17.6222 11.6013L17.6111 10.2848L17.8222 10.0435C17.9389 9.90634 18.1222 9.76921 18.2278 9.73082C18.4945 9.63208 30.1833 9.62111 30.5222 9.71984ZM38.7556 19.0557C39.1945 19.489 39.5556 19.884 39.5556 19.9388C39.5556 19.9937 39.4611 20.2021 39.3445 20.3996C39.2278 20.5971 39.0778 20.8713 39.0111 21.0085C38.9389 21.1456 38.8611 21.2937 38.8333 21.3376C38.8056 21.3814 38.7056 21.5515 38.6111 21.7106C38.5167 21.8751 38.3389 22.1933 38.2111 22.4236C38.0833 22.6595 37.9611 22.8789 37.9278 22.9173C37.9 22.9557 37.8333 23.0544 37.7833 23.1422C37.7333 23.23 37.6389 23.4 37.5722 23.5152C37.3556 23.8937 36.8056 24.2941 36.4945 24.2996C36.4445 24.2996 36.3333 24.3325 36.2445 24.3764C36.1556 24.4203 35.9611 24.508 35.8056 24.5739C35.5222 24.6945 34.9056 25.276 34.0278 26.2523C33.8167 26.4882 33.4667 26.8722 33.25 27.0971C33.0389 27.3274 32.6778 27.7224 32.45 27.9747C32.2222 28.2325 31.8389 28.6494 31.5889 28.9072C31.3389 29.165 31.0389 29.4886 30.9222 29.6203C30.8 29.7574 30.3778 30.2072 29.9778 30.6295C29.5778 31.0464 29.1889 31.4688 29.1111 31.562C28.8611 31.8692 27.5278 33.2131 27.4556 33.2296C27.4167 33.2405 27.2167 33.0924 27.0111 32.895C26.4111 32.3245 25.8722 31.8582 25.7389 31.7979C25.5945 31.7321 25.5278 31.5785 25.5945 31.4633C25.6167 31.4194 25.7667 31.2549 25.9167 31.0903C26.0722 30.9312 26.3833 30.6021 26.6056 30.3608C26.8333 30.1194 27.4945 29.4393 28.0778 28.8523C28.6611 28.2654 29.4556 27.4371 29.8445 27.0148C30.2333 26.5924 30.7445 26.0604 30.9833 25.83C31.5611 25.276 33.1889 23.5975 33.3667 23.3616C33.55 23.1258 33.9445 22.3139 33.9445 22.1768C33.9445 22.0397 34.1333 21.5131 34.2167 21.4308C34.25 21.3979 34.2778 21.3321 34.2778 21.2827C34.2778 21.184 34.8722 20.6025 35.4333 20.1528C36.1945 19.5439 36.3611 19.4122 36.5278 19.2696C36.6222 19.1928 36.8445 19.0173 37.0278 18.8802C37.2111 18.7431 37.4556 18.5456 37.5722 18.4468C37.6833 18.3481 37.8167 18.2658 37.8667 18.2658C37.9167 18.2658 38.3167 18.6224 38.7556 19.0557Z" fill="#184790"/>
<path d="M23.3278 37.6561C23.1833 37.7274 22.9389 37.9468 22.75 38.1608C22.5722 38.3637 21.9945 38.9671 21.4667 39.4937C20.9389 40.0203 20.4389 40.5413 20.3556 40.6456C20.1833 40.8595 19.7111 41.3477 18.4945 42.5873C18.05 43.0426 17.4333 43.6844 17.1278 44.019C16.8222 44.3481 16.2445 44.9515 15.8389 45.3574C15.4333 45.7578 15.1167 46.1198 15.1278 46.1527C15.1445 46.1966 15.45 46.2076 16.1778 46.1857L17.2056 46.1582L17.9556 45.3903C18.3722 44.9679 18.8556 44.4523 19.0333 44.2439C19.35 43.8764 19.5611 43.657 20.7167 42.4831C21.0111 42.1814 21.5389 41.6274 21.8889 41.2544C22.2333 40.8814 22.9445 40.1519 23.4611 39.6363C23.9778 39.1207 24.4389 38.6215 24.4778 38.5228C24.6278 38.1827 24.5333 37.7932 24.2667 37.6068C24.0778 37.4751 23.6333 37.497 23.3278 37.6561Z" fill="#184790"/>
</svg>
