<svg width="145" height="52" viewBox="0 0 145 52" fill="none" xmlns="http://www.w3.org/2000/svg">
<path d="M18.4167 6.20381C18.2667 6.23124 17.9778 6.27512 17.7778 6.30254C17.3833 6.3574 16.9778 6.45065 16.8056 6.52195C16.7444 6.54938 16.5833 6.6152 16.4444 6.67006C15.6167 7.01562 14.9278 7.65739 14.5 8.49664C14.1111 9.24811 14.0944 9.34685 14.0722 11.1899C14.05 12.3747 14.0278 12.8739 13.9833 12.9013C13.9444 12.9232 12.8944 12.9452 11.6444 12.9452C9.39445 12.9452 8.97778 12.9726 8.47223 13.1426C8.34445 13.1865 8.21667 13.2194 8.17778 13.2194C8.05 13.2194 7.36111 13.5705 6.97222 13.8283C6.75556 13.9764 6.41111 14.2616 6.2 14.4701C5.85 14.8211 5.45 15.3258 5.44445 15.43C5.44445 15.4574 5.40556 15.5122 5.36111 15.5561C5.31667 15.6055 5.27778 15.6878 5.27778 15.7426C5.27778 15.7975 5.25556 15.8578 5.22778 15.8743C5.17778 15.9072 5.10556 16.1156 4.91667 16.7793C4.84445 17.0426 4.83334 18.5182 4.83334 29.4338C4.83334 41.3696 4.83889 41.803 4.93889 42.2198C4.99445 42.4557 5.1 42.7958 5.16667 42.9768C5.46111 43.7393 6.32778 44.776 7.03334 45.1928L7.35 45.3848L7.51667 45.1928C7.73334 44.946 8.13334 44.5236 8.75 43.8819C9.02223 43.5912 9.55 43.0371 9.91667 42.6477C10.2778 42.2528 11.2667 41.2435 12.1111 40.3987C12.9556 39.554 13.8889 38.5831 14.1889 38.2376C14.7111 37.6397 14.7389 37.6013 14.8167 37.2228C14.8889 36.8992 14.8889 36.7127 14.8389 36.1203C14.8056 35.7253 14.7778 35.0726 14.7778 34.6667C14.7722 34.2608 14.7389 33.4654 14.7 32.9004C14.6278 31.8912 14.6222 31.8747 14.4111 31.4633C14.1944 31.03 13.8167 30.6241 13.1556 30.1249C12.8944 29.9274 12.4611 29.516 12.0556 29.0772C11.7778 28.781 11.05 27.5414 10.9167 27.1464C10.5444 26.0055 10.4889 25.6874 10.4833 24.6561C10.4778 23.9321 10.5 23.6249 10.5778 23.2848C10.8444 22.1165 11.2389 21.2279 11.8556 20.4051C12.1222 20.0431 13.1889 18.9789 13.2778 18.9789C13.3167 18.9789 13.4389 18.9076 13.55 18.8253C13.9056 18.5566 14.6667 18.2329 14.8167 18.2878C14.9 18.3207 14.9056 18.5675 14.8722 21.535C14.8278 25.1772 14.8167 25.073 15.2611 25.5612C15.5278 25.8574 15.6944 25.9561 16.1944 26.1207C16.6889 26.2852 18.4889 26.3291 19.1 26.1865C19.7389 26.0439 20.3222 25.7148 20.45 25.4296C20.4778 25.3637 20.5222 25.276 20.55 25.2321C20.7056 24.9743 20.7278 24.6122 20.7389 21.5021L20.75 18.2933L20.9778 18.2987C21.2722 18.3042 22.0222 18.6608 22.5222 19.0338C23.3278 19.6426 23.9444 20.4051 24.4222 21.3924C24.7111 21.9903 24.7778 22.1604 24.7778 22.2865C24.7833 22.3523 24.8167 22.4675 24.8611 22.5443C24.9056 22.6211 24.9389 22.7582 24.9444 22.8515C24.9444 22.9447 24.9833 23.1312 25.0278 23.2574C25.1333 23.5481 25.15 25.4076 25.05 25.6544C25.0167 25.7367 24.9667 25.9561 24.9444 26.1371C24.9 26.4717 24.8278 26.7295 24.6889 27.0038C24.6444 27.0916 24.6111 27.1903 24.6111 27.2287C24.6111 27.3439 24.0778 28.3422 23.8222 28.6987C23.4833 29.1705 22.8333 29.8397 22.2778 30.2785C21.5056 30.8874 21.0833 31.4468 20.9056 32.0886C20.8556 32.2696 20.8167 32.6481 20.8111 33.0321L20.8056 33.6739L20.5278 33.9646C20.3778 34.1236 20.2389 34.2663 20.2222 34.2827C20.2056 34.2992 19.9556 34.557 19.6667 34.8587C19.3778 35.1604 18.6778 35.8734 18.1111 36.4494C17.5444 37.0198 16.8722 37.7274 16.6111 38.0127C16.35 38.2924 15.9389 38.7422 15.6944 39C15.45 39.2578 14.9889 39.7515 14.6667 40.0971C14.3444 40.4426 13.8944 40.9253 13.6611 41.1667C13.4333 41.408 13.1444 41.7152 13.0222 41.8523C12.9056 41.984 12.5556 42.357 12.25 42.6751C11.9444 42.9878 11.4833 43.4705 11.2167 43.7447C10.9556 44.0135 10.6611 44.3371 10.5611 44.4578C10.4611 44.5785 10.0611 44.9954 9.67778 45.3793C9.11667 45.9388 8.98889 46.0924 9.05556 46.1308C9.1 46.1582 9.67778 46.1857 10.3389 46.1857H11.5389L13.3944 44.3152C15.5111 42.1814 15.5389 42.1485 16.2944 41.3312C16.6056 40.9966 17.1556 40.4207 17.5278 40.0422C17.9 39.6637 18.4111 39.1317 18.6722 38.8629C18.9278 38.5886 19.5778 37.9085 20.1111 37.3544C20.6444 36.795 21.3333 36.0819 21.6333 35.7637C22.6444 34.716 23.5111 33.8439 23.5556 33.8439C23.5778 33.8439 23.7778 34.0359 24 34.2663C24.2278 34.5021 24.7889 35.0836 25.2444 35.5663C25.7056 36.0435 26.2278 36.5481 26.4111 36.6852C26.5889 36.8169 26.8556 37.0418 27.0056 37.1789C27.25 37.3983 27.2778 37.4477 27.2778 37.6561C27.2778 37.8536 27.2333 37.9414 27.0167 38.2101C26.8667 38.3857 26.7 38.5831 26.6333 38.6435C26.5722 38.7038 26.3722 38.9123 26.1944 39.1097C25.9056 39.4279 24.6111 40.7992 24.3889 41.0241C24.3389 41.0734 24.0667 41.3696 23.7778 41.6878C23.4889 42.0004 23.0111 42.5051 22.7167 42.8123C22.4222 43.1139 22.0222 43.5418 21.8278 43.7612C21.6333 43.9861 21.2167 44.4304 20.9111 44.7485C20.6 45.0722 20.2333 45.4726 20.0889 45.6371C19.95 45.8017 19.7944 45.9717 19.7444 46.0156C19.6944 46.0595 19.6778 46.1089 19.7056 46.1363C19.7389 46.1692 23.8667 46.1802 29.95 46.1747C39.5333 46.1582 40.15 46.1528 40.3167 46.0595C40.4167 46.0101 40.5389 45.9663 40.5945 45.9663C40.7167 45.9663 41.4778 45.5878 41.8611 45.3355C42.1889 45.1215 42.9056 44.403 43.1611 44.03C43.3167 43.8051 43.5722 43.295 43.7222 42.922C43.8333 42.6367 43.9056 42.2692 43.95 41.7426C43.9833 41.3971 43.9944 36.2848 43.9833 29.0443C43.9722 17.4485 43.9667 16.911 43.8667 16.6203C43.6833 16.0827 43.4833 15.611 43.3778 15.4739C43.3222 15.4025 43.2778 15.3203 43.2778 15.2928C43.2778 15.2654 43.1611 15.0899 43.0167 14.9034C42.2444 13.9106 41.1611 13.2633 39.8445 13.0055C39.6611 12.9671 38.6445 12.9452 37.25 12.9452C35.4833 12.9452 34.9445 12.9287 34.9 12.8739C34.8667 12.8355 34.8333 12.1827 34.8222 11.2447C34.8 9.94474 34.7833 9.64854 34.7056 9.46752C34.6556 9.35233 34.6111 9.2152 34.6111 9.16035C34.6111 9.02322 34.3222 8.3979 34.0944 8.05233C33.85 7.67385 33.4111 7.24052 33.0111 6.97723C32.7333 6.79622 32.5833 6.71942 32.0833 6.52744C31.85 6.43419 31.4556 6.35191 31.0389 6.30254C30.8 6.27512 30.5833 6.24221 30.5556 6.22575C30.4667 6.1709 18.7056 6.14896 18.4167 6.20381ZM30.5222 9.71984C30.8 9.79664 30.9778 9.92828 31.15 10.1751C31.2722 10.3561 31.2778 10.3945 31.2778 11.6232V12.8903L31.1556 12.9177C31.0833 12.9342 28.0167 12.9397 24.3333 12.9342L17.6389 12.9177L17.6222 11.6013L17.6111 10.2848L17.8222 10.0435C17.9389 9.90634 18.1222 9.76921 18.2278 9.73082C18.4944 9.63208 30.1833 9.62111 30.5222 9.71984ZM38.7556 19.0557C39.1945 19.489 39.5556 19.884 39.5556 19.9388C39.5556 19.9937 39.4611 20.2021 39.3445 20.3996C39.2278 20.5971 39.0778 20.8713 39.0111 21.0085C38.9389 21.1456 38.8611 21.2937 38.8333 21.3376C38.8056 21.3814 38.7056 21.5515 38.6111 21.7106C38.5167 21.8751 38.3389 22.1933 38.2111 22.4236C38.0833 22.6595 37.9611 22.8789 37.9278 22.9173C37.9 22.9557 37.8333 23.0544 37.7833 23.1422C37.7333 23.23 37.6389 23.4 37.5722 23.5152C37.3556 23.8937 36.8056 24.2941 36.4944 24.2996C36.4445 24.2996 36.3333 24.3325 36.2444 24.3764C36.1556 24.4203 35.9611 24.508 35.8056 24.5739C35.5222 24.6945 34.9056 25.276 34.0278 26.2523C33.8167 26.4882 33.4667 26.8722 33.25 27.0971C33.0389 27.3274 32.6778 27.7224 32.45 27.9747C32.2222 28.2325 31.8389 28.6494 31.5889 28.9072C31.3389 29.165 31.0389 29.4886 30.9222 29.6203C30.8 29.7574 30.3778 30.2072 29.9778 30.6295C29.5778 31.0464 29.1889 31.4688 29.1111 31.562C28.8611 31.8692 27.5278 33.2131 27.4556 33.2296C27.4167 33.2405 27.2167 33.0924 27.0111 32.895C26.4111 32.3245 25.8722 31.8582 25.7389 31.7979C25.5944 31.7321 25.5278 31.5785 25.5944 31.4633C25.6167 31.4194 25.7667 31.2549 25.9167 31.0903C26.0722 30.9312 26.3833 30.6021 26.6056 30.3608C26.8333 30.1194 27.4944 29.4393 28.0778 28.8523C28.6611 28.2654 29.4556 27.4371 29.8444 27.0148C30.2333 26.5924 30.7444 26.0604 30.9833 25.83C31.5611 25.276 33.1889 23.5975 33.3667 23.3616C33.55 23.1258 33.9445 22.3139 33.9445 22.1768C33.9445 22.0397 34.1333 21.5131 34.2167 21.4308C34.25 21.3979 34.2778 21.3321 34.2778 21.2827C34.2778 21.184 34.8722 20.6025 35.4333 20.1528C36.1945 19.5439 36.3611 19.4122 36.5278 19.2696C36.6222 19.1928 36.8445 19.0173 37.0278 18.8802C37.2111 18.7431 37.4556 18.5456 37.5722 18.4468C37.6833 18.3481 37.8167 18.2658 37.8667 18.2658C37.9167 18.2658 38.3167 18.6224 38.7556 19.0557Z" fill="#184790"/>
<path d="M23.3278 37.6561C23.1833 37.7275 22.9389 37.9469 22.75 38.1608C22.5722 38.3637 21.9945 38.9671 21.4667 39.4937C20.9389 40.0203 20.4389 40.5414 20.3556 40.6456C20.1833 40.8595 19.7111 41.3477 18.4945 42.5874C18.05 43.0426 17.4333 43.6844 17.1278 44.019C16.8222 44.3481 16.2445 44.9515 15.8389 45.3574C15.4333 45.7578 15.1167 46.1199 15.1278 46.1528C15.1445 46.1967 15.45 46.2076 16.1778 46.1857L17.2056 46.1583L17.9556 45.3903C18.3722 44.968 18.8556 44.4524 19.0333 44.2439C19.35 43.8764 19.5611 43.657 20.7167 42.4832C21.0111 42.1815 21.5389 41.6275 21.8889 41.2545C22.2333 40.8815 22.9445 40.1519 23.4611 39.6363C23.9778 39.1207 24.4389 38.6215 24.4778 38.5228C24.6278 38.1827 24.5333 37.7933 24.2667 37.6068C24.0778 37.4751 23.6333 37.4971 23.3278 37.6561Z" fill="#184790"/>
<path d="M61.7557 22.2784C61.6989 21.6534 61.446 21.1676 60.9972 20.821C60.554 20.4688 59.9205 20.2926 59.0966 20.2926C58.5511 20.2926 58.0966 20.3636 57.733 20.5057C57.3693 20.6477 57.0966 20.8438 56.9148 21.0938C56.733 21.3381 56.6392 21.6193 56.6335 21.9375C56.6222 22.1989 56.6733 22.429 56.7869 22.6278C56.9063 22.8267 57.0767 23.0028 57.2983 23.1562C57.5256 23.304 57.7983 23.4347 58.1165 23.5483C58.4347 23.6619 58.7926 23.7614 59.1903 23.8466L60.6903 24.1875C61.554 24.375 62.3153 24.625 62.9744 24.9375C63.6392 25.25 64.196 25.6222 64.6449 26.054C65.0994 26.4858 65.4432 26.983 65.6761 27.5455C65.9091 28.108 66.0284 28.7386 66.0341 29.4375C66.0284 30.5398 65.75 31.4858 65.1989 32.2756C64.6477 33.0653 63.8551 33.6705 62.821 34.0909C61.7926 34.5114 60.5511 34.7216 59.0966 34.7216C57.6364 34.7216 56.3636 34.5028 55.2784 34.0653C54.1932 33.6278 53.3494 32.9631 52.7472 32.071C52.1449 31.179 51.8352 30.0511 51.8182 28.6875H55.858C55.892 29.25 56.0426 29.7188 56.3097 30.0938C56.5767 30.4688 56.9432 30.7528 57.4091 30.946C57.8807 31.1392 58.4261 31.2358 59.0455 31.2358C59.6136 31.2358 60.0966 31.1591 60.4943 31.0057C60.8977 30.8523 61.2074 30.6392 61.4233 30.3665C61.6392 30.0937 61.75 29.7812 61.7557 29.429C61.75 29.0994 61.6477 28.8182 61.4489 28.5852C61.25 28.3466 60.9432 28.142 60.5284 27.9716C60.1193 27.7955 59.5966 27.6335 58.9602 27.4858L57.1364 27.0597C55.625 26.7131 54.4347 26.1534 53.5653 25.3807C52.696 24.6023 52.2642 23.5511 52.2699 22.2273C52.2642 21.1477 52.554 20.2017 53.1392 19.3892C53.7244 18.5767 54.5341 17.9432 55.5682 17.4886C56.6023 17.0341 57.7813 16.8068 59.1051 16.8068C60.4574 16.8068 61.6307 17.0369 62.625 17.4972C63.625 17.9517 64.4006 18.5909 64.9517 19.4148C65.5028 20.2386 65.7841 21.1932 65.7955 22.2784H61.7557ZM72.3835 17.0455V34.5H68.1648V17.0455H72.3835ZM75.032 34.5V17.0455H82.2422C83.549 17.0455 84.6768 17.3011 85.6257 17.8125C86.5803 18.3182 87.3161 19.0256 87.8331 19.9347C88.3501 20.8381 88.6087 21.8892 88.6087 23.0881C88.6087 24.2926 88.3445 25.3466 87.8161 26.25C87.2933 27.1477 86.5462 27.8437 85.5746 28.3381C84.603 28.8324 83.4496 29.0795 82.1143 29.0795H77.6655V25.7557H81.3303C81.9666 25.7557 82.4979 25.6449 82.924 25.4233C83.3558 25.2017 83.6825 24.892 83.9041 24.4943C84.1257 24.0909 84.2365 23.6222 84.2365 23.0881C84.2365 22.5483 84.1257 22.0824 83.9041 21.6903C83.6825 21.2926 83.3558 20.9858 82.924 20.7699C82.4922 20.554 81.9609 20.446 81.3303 20.446H79.2507V34.5H75.032ZM92.3544 34.5H87.8203L93.7095 17.0455H99.326L105.215 34.5H100.681L96.5817 21.4432H96.4453L92.3544 34.5ZM91.7493 27.6307H101.227V30.8352H91.7493V27.6307ZM115.99 22.2784C115.933 21.6534 115.68 21.1676 115.232 20.821C114.788 20.4688 114.155 20.2926 113.331 20.2926C112.786 20.2926 112.331 20.3636 111.967 20.5057C111.604 20.6477 111.331 20.8438 111.149 21.0938C110.967 21.3381 110.874 21.6193 110.868 21.9375C110.857 22.1989 110.908 22.429 111.021 22.6278C111.141 22.8267 111.311 23.0028 111.533 23.1562C111.76 23.304 112.033 23.4347 112.351 23.5483C112.669 23.6619 113.027 23.7614 113.425 23.8466L114.925 24.1875C115.788 24.375 116.55 24.625 117.209 24.9375C117.874 25.25 118.43 25.6222 118.879 26.054C119.334 26.4858 119.678 26.983 119.911 27.5455C120.143 28.108 120.263 28.7386 120.268 29.4375C120.263 30.5398 119.984 31.4858 119.433 32.2756C118.882 33.0653 118.089 33.6705 117.055 34.0909C116.027 34.5114 114.786 34.7216 113.331 34.7216C111.871 34.7216 110.598 34.5028 109.513 34.0653C108.428 33.6278 107.584 32.9631 106.982 32.071C106.379 31.179 106.07 30.0511 106.053 28.6875H110.092C110.126 29.25 110.277 29.7188 110.544 30.0938C110.811 30.4688 111.178 30.7528 111.643 30.946C112.115 31.1392 112.661 31.2358 113.28 31.2358C113.848 31.2358 114.331 31.1591 114.729 31.0057C115.132 30.8523 115.442 30.6392 115.658 30.3665C115.874 30.0937 115.984 29.7812 115.99 29.429C115.984 29.0994 115.882 28.8182 115.683 28.5852C115.484 28.3466 115.178 28.142 114.763 27.9716C114.354 27.7955 113.831 27.6335 113.195 27.4858L111.371 27.0597C109.859 26.7131 108.669 26.1534 107.8 25.3807C106.93 24.6023 106.499 23.5511 106.504 22.2273C106.499 21.1477 106.788 20.2017 107.374 19.3892C107.959 18.5767 108.768 17.9432 109.803 17.4886C110.837 17.0341 112.016 16.8068 113.339 16.8068C114.692 16.8068 115.865 17.0369 116.859 17.4972C117.859 17.9517 118.635 18.5909 119.186 19.4148C119.737 20.2386 120.018 21.1932 120.03 22.2784H115.99ZM121.828 20.4716V17.0455H136.581V20.4716H131.288V34.5H127.129V20.4716H121.828ZM142.86 17.0455V34.5H138.641V17.0455H142.86Z" fill="black"/>
</svg>
